<svg xmlns="http://www.w3.org/2000/svg" version="1.1" xmlns:xlink="http://www.w3.org/1999/xlink" xmlns:svgjs="http://svgjs.dev/svgjs" width="128" height="128" viewBox="0 0 128 128"><g transform="matrix(0.8046875,0,0,0.8046875,12.542874520206986,9.55829967105263)"><svg viewBox="0 0 89 95" data-background-color="#ffffff" preserveAspectRatio="xMidYMid meet" height="136" width="128" xmlns="http://www.w3.org/2000/svg" xmlns:xlink="http://www.w3.org/1999/xlink"><g id="tight-bounds" transform="matrix(1,0,0,1,-0.03704691551865835,-0.24049999999999727)"><svg viewBox="0 0 89.07409383103732 95.481" height="95.481" width="89.07409383103732"><g><svg viewBox="0 0 89.07409383103732 95.481" height="95.481" width="89.07409383103732"><g><svg viewBox="0 0 89.07409383103732 95.481" height="95.481" width="89.07409383103732"><g id="textblocktransform"><svg viewBox="0 0 89.07409383103732 95.481" height="95.481" width="89.07409383103732" id="textblock"><g><svg viewBox="0 0 89.07409383103732 95.481" height="95.481" width="89.07409383103732"><g><svg viewBox="0 0 89.07409383103732 95.481" height="95.481" width="89.07409383103732"><g><svg xmlns="http://www.w3.org/2000/svg" xmlns:xlink="http://www.w3.org/1999/xlink" version="1.1" x="0" y="0" viewBox="5.799999999999999 1.676223611353019 116.35463978177499 124.72377638864697" style="enable-background:new 0 0 128 128;" xml:space="preserve" height="95.481" width="89.07409383103732" class="icon-icon-0" data-fill-palette-color="accent" id="icon-0"><g fill="#8b3c7f" data-fill-palette-color="accent"><path d="M48.4 1.7C42.4 1.3 37.5 6 37.5 11.8c0 0 0 0 0 0.1 0 2.7-2 5-4.6 5.3C25.2 18.1 20 19.7 20 21.5c0 0.2 0.1 5.5 0.2 5.6h54.8c0.1-0.2 0.2-5.5 0.2-5.6 0-1.8-5.1-3.4-12.9-4.4-2.7-0.3-4.7-2.6-4.6-5.3 0-0.2 0-0.4 0-0.6C57.5 6.2 53.4 2.1 48.4 1.7z" fill="#8b3c7f" data-fill-palette-color="accent"></path><path d="M121.9 54.1c0.4-0.4 0.3-1.1-0.1-1.4l-13.2-10.8c-0.4-0.4-1.1-0.3-1.4 0.1l-3.1 3.8 14.7 12.1L121.9 54.1z" fill="#8b3c7f" data-fill-palette-color="accent"></path><rect x="65.5" y="66.6" transform="matrix(0.6336 -0.7737 0.7737 0.6336 -25.3777 98.7355)" width="52.1" height="19" fill="#8b3c7f" data-fill-palette-color="accent"></rect><polygon points="80.4,103.7 66.7,92.5 64.3,109.5  " fill="#8b3c7f" data-fill-palette-color="accent"></polygon><path d="M28.6 57.7L25.2 61l-0.7-0.7c-0.8-0.7-2-0.7-2.7 0-0.7 0.8-0.7 2 0 2.7l3.4 3.3 6.1-5.9c0.8-0.7 0.8-2 0-2.7C30.6 57 29.4 57 28.6 57.7z" fill="#8b3c7f" data-fill-palette-color="accent"></path><path d="M30.5 83.3c-0.8-0.8-2-0.8-2.7 0l-1.2 1.2-1.2-1.2c-0.8-0.8-2-0.8-2.7 0-0.8 0.8-0.8 2 0 2.7l1.2 1.2-1.2 1.2c-0.8 0.8-0.8 2 0 2.7 0.4 0.4 0.9 0.6 1.4 0.6s1-0.2 1.4-0.6l1.2-1.2 1.2 1.2c0.4 0.4 0.9 0.6 1.4 0.6s1-0.2 1.4-0.6c0.8-0.8 0.8-2 0-2.7l-1.2-1.2 1.2-1.2C31.3 85.3 31.3 84.1 30.5 83.3z" fill="#8b3c7f" data-fill-palette-color="accent"></path><path d="M89.1 98.3l-4.5 5.5 1 0.8-2.3 0.8-0.4 0.5-0.3-0.3-21.4 7.7 3.3-22.5-0.3-0.3 0.4-0.5 0.4-2.4 1 0.8 23.3-28.4V24.2h-8.8-2.5c-0.1 3.6-0.3 3.9-0.6 4.4l-0.8 1.2H18.8l-0.8-1.1c-0.3-0.5-0.5-0.8-0.6-4.4h-2.6-9v102.1h83.2V98.3zM40.7 58.5h39.3c1.1 0 1.9 0.9 1.9 1.9s-0.9 1.9-1.9 1.9H40.7c-1.1 0-1.9-0.9-1.9-1.9S39.7 58.5 40.7 58.5zM26.6 95.8c-5 0-9.1-4.1-9.1-9.1 0-5 4.1-9.1 9.1-9.1 5 0 9.1 4.1 9.1 9.1C35.6 91.8 31.6 95.8 26.6 95.8zM26.6 69.7c-5 0-9.1-4.1-9.1-9.1 0-5 4.1-9.1 9.1-9.1 5 0 9.1 4.1 9.1 9.1C35.6 65.6 31.6 69.7 26.6 69.7zM40.7 89c-1.1 0-1.9-0.9-1.9-1.9s0.9-1.9 1.9-1.9h19.7c1.1 0 1.9 0.9 1.9 1.9S61.5 89 60.4 89H40.7z" fill="#8b3c7f" data-fill-palette-color="accent"></path></g></svg></g></svg></g></svg></g></svg></g></svg></g></svg></g><defs></defs></svg><rect width="89.07409383103732" height="95.481" fill="none" stroke="none" visibility="hidden"></rect></g></svg></g></svg>