<svg xmlns="http://www.w3.org/2000/svg" version="1.1" xmlns:xlink="http://www.w3.org/1999/xlink" xmlns:svgjs="http://svgjs.dev/svgjs" width="1000" height="174" viewBox="0 0 1000 174"><g transform="matrix(1,0,0,1,-0.6060485768804256,-0.08633967931513098)"><svg viewBox="0 0 396 69" data-background-color="#ffffff" preserveAspectRatio="xMidYMid meet" height="174" width="1000" xmlns="http://www.w3.org/2000/svg" xmlns:xlink="http://www.w3.org/1999/xlink"><g id="tight-bounds" transform="matrix(1,0,0,1,0.23999523644465626,0.03423814869393027)"><svg viewBox="0 0 395.52 68.93152370261211" height="68.93152370261211" width="395.52"><g><svg viewBox="0 0 490.5146289869198 85.48725923970936" height="68.93152370261211" width="395.52"><g transform="matrix(1,0,0,1,94.99462898691979,5.5314913269017225)"><svg viewBox="0 0 395.52 74.42427658590591" height="74.42427658590591" width="395.52"><g id="textblocktransform"><svg viewBox="0 0 395.52 74.42427658590591" height="74.42427658590591" width="395.52" id="textblock"><g><svg viewBox="0 0 395.52 40.27249592169657" height="40.27249592169657" width="395.52"><g transform="matrix(1,0,0,1,0,0)"><svg width="395.52" viewBox="3.75 -37 367.7699890136719 37.45000076293945" height="40.27249592169657" data-palette-color="#a437db"><g class="wordmark-text-0" data-fill-palette-color="primary" id="text-0"><path d="M22.95-30.15L9.45-30.15 9.45-19.95 21.45-19.95 21.45-15.3 9.45-15.3 9.45-4.65 22.95-4.65 22.95 0 3.75 0 3.75-34.8 22.95-34.8 22.95-30.15ZM50.65-27.55L41.75-13.95 50.65 0 44.2 0 38.25-9.35 32.65 0 26.7 0 35.6-13.55 26.7-27.55 33.15-27.55 39.1-18.2 44.7-27.55 50.65-27.55ZM53-13.9Q53-18.05 54.72-21.25 56.45-24.45 59.42-26.23 62.4-28 66-28L66-28Q69.25-28 71.67-26.73 74.1-25.45 75.55-23.55L75.55-23.55 75.55-27.55 81.3-27.55 81.3 0 75.55 0 75.55-4.1Q74.1-2.15 71.6-0.85 69.1 0.45 65.9 0.45L65.9 0.45Q62.35 0.45 59.4-1.38 56.45-3.2 54.72-6.48 53-9.75 53-13.9L53-13.9ZM75.55-13.8Q75.55-16.65 74.37-18.75 73.2-20.85 71.3-21.95 69.4-23.05 67.2-23.05L67.2-23.05Q65-23.05 63.1-21.98 61.2-20.9 60.02-18.82 58.85-16.75 58.85-13.9L58.85-13.9Q58.85-11.05 60.02-8.9 61.2-6.75 63.12-5.63 65.05-4.5 67.2-4.5L67.2-4.5Q69.4-4.5 71.3-5.6 73.2-6.7 74.37-8.83 75.55-10.95 75.55-13.8L75.55-13.8ZM122.14-28Q125.39-28 127.97-26.65 130.54-25.3 132.02-22.65 133.49-20 133.49-16.25L133.49-16.25 133.49 0 127.84 0 127.84-15.4Q127.84-19.1 125.99-21.08 124.14-23.05 120.94-23.05L120.94-23.05Q117.74-23.05 115.87-21.08 113.99-19.1 113.99-15.4L113.99-15.4 113.99 0 108.34 0 108.34-15.4Q108.34-19.1 106.49-21.08 104.64-23.05 101.44-23.05L101.44-23.05Q98.24-23.05 96.37-21.08 94.49-19.1 94.49-15.4L94.49-15.4 94.49 0 88.79 0 88.79-27.55 94.49-27.55 94.49-24.4Q95.89-26.1 98.04-27.05 100.19-28 102.64-28L102.64-28Q105.94-28 108.54-26.6 111.14-25.2 112.54-22.55L112.54-22.55Q113.79-25.05 116.44-26.53 119.09-28 122.14-28L122.14-28ZM138.84-17.45Q138.84-22.55 141.22-26.6 143.59-30.65 147.67-32.93 151.74-35.2 156.59-35.2L156.59-35.2Q162.14-35.2 166.47-32.48 170.79-29.75 172.74-24.75L172.74-24.75 165.89-24.75Q164.54-27.5 162.14-28.85 159.74-30.2 156.59-30.2L156.59-30.2Q153.14-30.2 150.44-28.65 147.74-27.1 146.22-24.2 144.69-21.3 144.69-17.45L144.69-17.45Q144.69-13.6 146.22-10.7 147.74-7.8 150.44-6.23 153.14-4.65 156.59-4.65L156.59-4.65Q159.74-4.65 162.14-6 164.54-7.35 165.89-10.1L165.89-10.1 172.74-10.1Q170.79-5.1 166.47-2.4 162.14 0.3 156.59 0.3L156.59 0.3Q151.69 0.3 147.64-1.98 143.59-4.25 141.22-8.3 138.84-12.35 138.84-17.45L138.84-17.45ZM177.49-13.9Q177.49-18.05 179.21-21.25 180.94-24.45 183.91-26.23 186.89-28 190.49-28L190.49-28Q193.74-28 196.16-26.73 198.59-25.45 200.04-23.55L200.04-23.55 200.04-27.55 205.79-27.55 205.79 0 200.04 0 200.04-4.1Q198.59-2.15 196.09-0.85 193.59 0.45 190.39 0.45L190.39 0.45Q186.84 0.45 183.89-1.38 180.94-3.2 179.21-6.48 177.49-9.75 177.49-13.9L177.49-13.9ZM200.04-13.8Q200.04-16.65 198.86-18.75 197.69-20.85 195.79-21.95 193.89-23.05 191.69-23.05L191.69-23.05Q189.49-23.05 187.59-21.98 185.69-20.9 184.51-18.82 183.34-16.75 183.34-13.9L183.34-13.9Q183.34-11.05 184.51-8.9 185.69-6.75 187.61-5.63 189.54-4.5 191.69-4.5L191.69-4.5Q193.89-4.5 195.79-5.6 197.69-6.7 198.86-8.83 200.04-10.95 200.04-13.8L200.04-13.8ZM213.29-37L218.99-37 218.99 0 213.29 0 213.29-37ZM251.73-14.45Q251.73-12.9 251.53-11.65L251.53-11.65 230.48-11.65Q230.73-8.35 232.93-6.35 235.13-4.35 238.33-4.35L238.33-4.35Q242.93-4.35 244.83-8.2L244.83-8.2 250.98-8.2Q249.73-4.4 246.46-1.98 243.18 0.45 238.33 0.45L238.33 0.45Q234.38 0.45 231.26-1.33 228.13-3.1 226.36-6.33 224.58-9.55 224.58-13.8L224.58-13.8Q224.58-18.05 226.31-21.28 228.03-24.5 231.16-26.25 234.28-28 238.33-28L238.33-28Q242.23-28 245.28-26.3 248.33-24.6 250.03-21.53 251.73-18.45 251.73-14.45L251.73-14.45ZM230.53-16.25L245.78-16.25Q245.73-19.4 243.53-21.3 241.33-23.2 238.08-23.2L238.08-23.2Q235.13-23.2 233.03-21.33 230.93-19.45 230.53-16.25L230.53-16.25ZM271.23-28Q274.48-28 277.06-26.65 279.63-25.3 281.08-22.65 282.53-20 282.53-16.25L282.53-16.25 282.53 0 276.88 0 276.88-15.4Q276.88-19.1 275.03-21.08 273.18-23.05 269.98-23.05L269.98-23.05Q266.78-23.05 264.91-21.08 263.03-19.1 263.03-15.4L263.03-15.4 263.03 0 257.33 0 257.33-27.55 263.03-27.55 263.03-24.4Q264.43-26.1 266.61-27.05 268.78-28 271.23-28L271.23-28ZM287.88-13.9Q287.88-18.05 289.6-21.25 291.33-24.45 294.3-26.23 297.28-28 300.93-28L300.93-28Q303.63-28 306.25-26.83 308.88-25.65 310.43-23.7L310.43-23.7 310.43-37 316.18-37 316.18 0 310.43 0 310.43-4.15Q309.03-2.15 306.55-0.85 304.08 0.45 300.88 0.45L300.88 0.45Q297.28 0.45 294.3-1.38 291.33-3.2 289.6-6.48 287.88-9.75 287.88-13.9L287.88-13.9ZM310.43-13.8Q310.43-16.65 309.25-18.75 308.08-20.85 306.18-21.95 304.28-23.05 302.08-23.05L302.08-23.05Q299.88-23.05 297.98-21.98 296.08-20.9 294.9-18.82 293.73-16.75 293.73-13.9L293.73-13.9Q293.73-11.05 294.9-8.9 296.08-6.75 298-5.63 299.93-4.5 302.08-4.5L302.08-4.5Q304.28-4.5 306.18-5.6 308.08-6.7 309.25-8.83 310.43-10.95 310.43-13.8L310.43-13.8ZM321.78-13.9Q321.78-18.05 323.5-21.25 325.23-24.45 328.2-26.23 331.18-28 334.78-28L334.78-28Q338.03-28 340.45-26.73 342.88-25.45 344.32-23.55L344.32-23.55 344.32-27.55 350.07-27.55 350.07 0 344.32 0 344.32-4.1Q342.88-2.15 340.38-0.85 337.88 0.45 334.68 0.45L334.68 0.45Q331.13 0.45 328.18-1.38 325.23-3.2 323.5-6.48 321.78-9.75 321.78-13.9L321.78-13.9ZM344.32-13.8Q344.32-16.65 343.15-18.75 341.98-20.85 340.07-21.95 338.18-23.05 335.98-23.05L335.98-23.05Q333.78-23.05 331.88-21.98 329.98-20.9 328.8-18.82 327.63-16.75 327.63-13.9L327.63-13.9Q327.63-11.05 328.8-8.9 329.98-6.75 331.9-5.63 333.82-4.5 335.98-4.5L335.98-4.5Q338.18-4.5 340.07-5.6 341.98-6.7 343.15-8.83 344.32-10.95 344.32-13.8L344.32-13.8ZM363.27-23.55Q364.52-25.65 366.6-26.83 368.67-28 371.52-28L371.52-28 371.52-22.1 370.07-22.1Q366.72-22.1 365-20.4 363.27-18.7 363.27-14.5L363.27-14.5 363.27 0 357.57 0 357.57-27.55 363.27-27.55 363.27-23.55Z" fill="#a437db" data-fill-palette-color="primary"></path></g></svg></g></svg></g><g transform="matrix(1,0,0,1,0,49.77986566890701)"><svg viewBox="0 0 232.209792 24.64441091699891" height="24.64441091699891" width="232.209792"><g transform="matrix(1,0,0,1,0,0)"><svg width="232.209792" viewBox="0.15000000596046448 -33.79999923706055 441.4000244140625 46.849998474121094" height="24.64441091699891" data-palette-color="#b19dd0"><path d="M15-2.1Q13.3-0.5 11.7 0.28 10.1 1.05 8.1 1.05L8.1 1.05Q4.8 1.05 3.03-1 1.25-3.05 1.25-6.45L1.25-6.45Q1.25-7.45 1.55-8.65L1.55-8.65 4.9-21.7Q5.2-22.8 5.98-23.33 6.75-23.85 8.5-23.85L8.5-23.85Q11.1-23.85 11.1-22.4L11.1-22.4Q11.1-21.8 10.75-20.5L10.75-20.5 7.4-7.1Q7.25-6.5 7.25-5.9L7.25-5.9Q7.25-4.85 7.8-4.2 8.35-3.55 9.55-3.55L9.55-3.55Q11.1-3.55 12.9-4.45 14.7-5.35 15.95-6.65L15.95-6.65 16.9-10.6Q17.85-14.6 19.1-19.25L19.1-19.25Q19.65-21.25 20.53-22.53 21.4-23.8 23.3-23.8L23.3-23.8Q25.95-23.8 25.95-22.2L25.95-22.2Q25.95-21.95 25.83-21.58 25.7-21.2 25.65-20.95L25.65-20.95 24-14.1Q21.4-3.2 20.6-0.15L20.6-0.15Q19.3 4.85 17.65 7.7 16 10.55 13.53 11.8 11.05 13.05 7.2 13.05L7.2 13.05Q4.75 13.05 3.18 12.35 1.6 11.65 0.88 10.65 0.15 9.65 0.15 8.8L0.15 8.8Q0.15 6.35 2.85 6.35L2.85 6.35Q3.6 6.35 4.08 6.65 4.55 6.95 5.05 7.5L5.05 7.5Q5.8 8.2 6.43 8.55 7.05 8.9 8.15 8.9L8.15 8.9Q9 8.9 10.05 8.2 11.1 7.5 12.1 6 13.1 4.5 13.75 2.25L13.75 2.25 15-2.1ZM36.55 1.05Q32.15 1.05 29.7-1.95 27.25-4.95 27.25-9.6L27.25-9.6Q27.25-13.5 29.12-16.95 31-20.4 34.25-22.5 37.5-24.6 41.4-24.6L41.4-24.6Q45.25-24.6 47.72-22.08 50.2-19.55 50.2-14.65L50.2-14.65Q50.2-11.2 48.3-7.5 46.4-3.8 43.22-1.38 40.05 1.05 36.55 1.05L36.55 1.05ZM37.3-2.95Q38.9-2.95 40.52-4.95 42.15-6.95 43.2-10 44.25-13.05 44.25-15.95L44.25-15.95Q44.25-20.4 40.55-20.4L40.55-20.4Q38.5-20.4 36.8-18.45 35.1-16.5 34.1-13.63 33.1-10.75 33.1-8.25L33.1-8.25Q33.1-6.8 33.75-5.58 34.4-4.35 35.37-3.65 36.35-2.95 37.3-2.95L37.3-2.95ZM72.3-0.15Q72.09 0.7 71.4 1.03 70.7 1.35 69.55 1.35L69.55 1.35Q66.09 1.35 66.09-0.2L66.09-0.2 66.4-2.1Q65-1.05 63.1 0 61.2 1.05 59.95 1.05L59.95 1.05Q52.55 1.05 52.55-3.8L52.55-3.8Q52.55-12.05 57.5-21.7L57.5-21.7Q58.1-22.85 58.77-23.35 59.45-23.85 61.1-23.85L61.1-23.85Q62.85-23.85 63.72-23.38 64.59-22.9 64.59-22.25L64.59-22.25Q64.59-22.1 64.05-21.35L64.05-21.35Q63.5-20.7 63.1-20.05L63.1-20.05Q58.4-12.2 58.4-4.75L58.4-4.75Q58.4-4.1 58.9-3.6 59.4-3.1 59.8-3.1L59.8-3.1Q60.9-3.1 63.52-4.15 66.15-5.2 67.55-6.3L67.55-6.3 68.55-10.35Q70.34-17.6 70.8-19.25L70.8-19.25Q71.34-21.25 72.22-22.53 73.09-23.8 75-23.8L75-23.8Q77.65-23.8 77.65-22.2L77.65-22.2Q77.65-21.95 77.52-21.58 77.4-21.2 77.34-20.95L77.34-20.95 75.34-12.85Q72.95-3.2 72.3-0.15L72.3-0.15ZM84.94-1.9Q84.89-1.6 84.72-0.73 84.54 0.15 83.87 0.5 83.19 0.85 81.74 0.85L81.74 0.85Q80.09 0.85 79.34 0.5 78.59 0.15 78.59-1L78.59-1 80.99-10.55Q82.99-18.8 83.64-21.05L83.64-21.05 82.39-22.55Q82.24-22.7 82.24-22.9L82.24-22.9Q82.24-23.4 83.34-23.73 84.44-24.05 86.39-24.05L86.39-24.05Q88.14-24.05 88.74-23.08 89.34-22.1 89.49-20.55L89.49-20.55 89.14-19.25Q90.74-21.2 92.87-22.48 94.99-23.75 96.64-23.75L96.64-23.75Q98.79-23.75 99.99-23 101.19-22.25 101.19-21.05L101.19-21.05Q101.19-20 100.47-18.88 99.74-17.75 98.64-16.98 97.54-16.2 96.49-16.1L96.49-16.1Q95.49-16.1 95.14-16.35 94.79-16.6 94.79-17.1L94.79-17.1 95.09-18.75Q91.09-17.65 87.84-13.45L87.84-13.45 84.94-1.9ZM121.74 1.05Q116.84 1.05 114.59-0.9 112.34-2.85 112.34-6.1L112.34-6.1Q112.34-10.85 114.71-14.9 117.09-18.95 121.06-21.33 125.04-23.7 129.64-23.7L129.64-23.7Q132.44-23.7 134.34-22.13 136.24-20.55 136.24-17.5L136.24-17.5Q136.24-15.75 135.11-14.63 133.99-13.5 131.89-12.63 129.79-11.75 125.09-10.15L125.09-10.15Q120.84-8.75 118.19-7.8L118.19-7.8Q117.99-7.05 117.99-6.25L117.99-6.25Q117.99-4.85 119.16-4.1 120.34-3.35 122.49-3.35L122.49-3.35Q123.84-3.35 125.59-3.9 127.34-4.45 127.79-5.3L127.79-5.3Q129.49-8.4 130.89-8.4L130.89-8.4Q132.94-8.4 133.66-7.63 134.39-6.85 134.44-5.9L134.44-5.9Q133.84-4.3 132.09-2.68 130.34-1.05 127.64 0 124.94 1.05 121.74 1.05L121.74 1.05ZM119.59-12.4Q124.54-14 127.74-15.38 130.94-16.75 130.94-18.1L130.94-18.1Q130.94-18.7 130.29-19.07 129.64-19.45 128.89-19.45L128.89-19.45Q127.39-19.45 125.46-18.3 123.54-17.15 121.89-15.5 120.24-13.85 119.59-12.4L119.59-12.4ZM159.89-24.5Q161.49-24.5 161.94-23.75 162.39-23 162.39-21.9L162.39-21.9Q162.39-21.15 162.19-20.88 161.99-20.6 161.39-20.25L161.39-20.25Q160.49-19.65 159.74-19.05L159.74-19.05Q158.74-18.15 152.79-11.45L152.79-11.45Q155.04-7.4 157.04-4.15L157.04-4.15Q157.99-2.65 157.99-1.4L157.99-1.4Q157.99-0.7 157.24-0.15L157.24-0.15Q156.64 0.3 155.54 0.3L155.54 0.3Q154.44 0.3 152.69-1.75L152.69-1.75Q151.19-3.6 148.99-7.2L148.99-7.2Q143.09-0.55 141.74 0.4L141.74 0.4Q140.89 1 139.79 1L139.79 1Q139.14 1 138.34 0.23 137.54-0.55 137.54-1.25L137.54-1.25Q137.54-1.7 137.59-1.95L137.59-1.95 138.59-2.85Q139.49-3.65 146.54-11.55L146.54-11.55Q144.94-14.65 143.94-17.32 142.94-20 142.94-21.6L142.94-21.6Q142.94-23.05 143.84-23.55 144.74-24.05 146.49-24.05L146.49-24.05Q147.34-24.05 148.19-23.63 149.04-23.2 149.04-22.5L149.04-22.5 148.99-21.75Q148.99-19.6 150.49-16.15L150.49-16.15Q153.94-20.2 156.31-22.35 158.69-24.5 159.89-24.5L159.89-24.5ZM182.98-2.6Q183.08-1.3 183.33-0.25L183.33-0.25Q183.23 0.05 182.46 0.35 181.68 0.65 181.13 0.65L181.13 0.65Q179.33 0.65 178.56 0.13 177.78-0.4 177.78-1.45L177.78-1.45Q177.78-2.45 177.98-3.45L177.98-3.45Q176.88-1.95 174.76-0.98 172.63 0 171.33 0L171.33 0Q167.98 0 165.76-1.95 163.53-3.9 163.53-8.2L163.53-8.2Q163.53-12.25 165.46-15.83 167.38-19.4 170.78-21.58 174.18-23.75 178.33-23.75L178.33-23.75Q179.13-23.75 180.43-23.33 181.73-22.9 183.06-21.88 184.38-20.85 185.28-19.25L185.28-19.25Q185.68-19.25 186.23-18.85 186.78-18.45 186.78-18.05L186.78-18.05Q186.78-17.6 186.63-17.15L186.63-17.15 182.98-2.6ZM180.73-16.6Q180.43-17.7 179.56-18.45 178.68-19.2 177.98-19.2L177.98-19.2Q175.68-19.2 173.66-17.57 171.63-15.95 170.38-13.55 169.13-11.15 169.13-9L169.13-9Q169.13-6.9 169.63-5.55 170.13-4.2 171.58-4.2L171.58-4.2Q172.83-4.2 174.46-4.95 176.08-5.7 177.36-6.98 178.63-8.25 179.03-9.65L179.03-9.65 180.73-16.6ZM191.78-22.85Q191.63-23 191.63-23.2L191.63-23.2Q191.63-23.7 192.73-24.03 193.83-24.35 195.78-24.35L195.78-24.35Q197.53-24.35 198.13-23.38 198.73-22.4 198.88-20.85L198.88-20.85Q198.78-20.45 198.68-19.75L198.68-19.75 198.43-18.55Q199.88-20.25 202.73-21.88 205.58-23.5 207.18-23.5L207.18-23.5Q209.68-23.5 210.66-22.63 211.63-21.75 211.78-19.3L211.78-19.3Q213.63-21.05 216.03-22.28 218.43-23.5 220.23-23.5L220.23-23.5Q222.13-23.5 223.73-22.73 225.33-21.95 225.33-20.25L225.33-20.25Q225.33-19.8 225.28-19.55L225.28-19.55Q225.13-18.75 224.71-17.32 224.28-15.9 224.08-15.25L224.08-15.25Q222.83-11.2 222.16-8.43 221.48-5.65 221.33-3L221.33-3 222.03-0.55Q221.43 0.6 220.36 1.28 219.28 1.95 217.23 1.95L217.23 1.95Q216.03 1.95 215.48 1.15 214.93 0.35 214.93-0.85L214.93-0.85Q214.93-1.1 214.98-1.4 215.03-1.7 215.03-1.95L215.03-1.95Q215.13-4.75 215.86-7.63 216.58-10.5 217.73-14.1L217.73-14.1Q218.78-17.25 218.78-17.95L218.78-17.95Q218.78-18.25 218.71-18.57 218.63-18.9 218.53-18.9L218.53-18.9Q217.38-18.9 214.76-17.8 212.13-16.7 211.23-15.6L211.23-15.6Q210.28-12.55 208.08-2.9L208.08-2.9 207.78-1.5Q207.53-0.2 207.31 0.3 207.08 0.8 206.43 1.05 205.78 1.3 204.33 1.3L204.33 1.3Q200.88 1.3 200.88-0.1L200.88-0.1Q201.28-1.2 203.08-8.55L203.08-8.55Q204.18-13.1 205.58-18.6L205.58-18.6Q205.28-18.45 204.48-18.15L204.48-18.15Q202.08-17.2 200.31-16.2 198.53-15.2 197.43-13.85L197.43-13.85 196.13-8.55Q195.83-7.35 195.58-6.33 195.33-5.3 195.13-4.6L195.13-4.6Q194.88-3.75 194.78-2.3L194.78-2.3Q194.68-1.3 194.51-0.85 194.33-0.4 193.66-0.13 192.98 0.15 191.53 0.15L191.53 0.15Q189.88 0.15 189.03-0.2 188.18-0.55 188.18-1.7L188.18-1.7Q188.18-2.25 189.46-7.55 190.73-12.85 192.93-21.35L192.93-21.35 191.78-22.85ZM243.18-22.85Q243.03-23 243.03-23.2L243.03-23.2Q243.03-23.7 244.13-24.03 245.23-24.35 247.18-24.35L247.18-24.35Q248.93-24.35 249.53-23.38 250.13-22.4 250.28-20.85L250.28-20.85Q250.18-20.45 250.08-19.75L250.08-19.75 249.83-18.55Q251.28-20.25 254.13-21.88 256.98-23.5 258.58-23.5L258.58-23.5Q261.08-23.5 262.05-22.63 263.03-21.75 263.18-19.3L263.18-19.3Q265.03-21.05 267.43-22.28 269.83-23.5 271.63-23.5L271.63-23.5Q273.53-23.5 275.13-22.73 276.73-21.95 276.73-20.25L276.73-20.25Q276.73-19.8 276.68-19.55L276.68-19.55Q276.53-18.75 276.1-17.32 275.68-15.9 275.48-15.25L275.48-15.25Q274.23-11.2 273.55-8.43 272.88-5.65 272.73-3L272.73-3 273.43-0.55Q272.83 0.6 271.75 1.28 270.68 1.95 268.63 1.95L268.63 1.95Q267.43 1.95 266.88 1.15 266.33 0.35 266.33-0.85L266.33-0.85Q266.33-1.1 266.38-1.4 266.43-1.7 266.43-1.95L266.43-1.95Q266.53-4.75 267.25-7.63 267.98-10.5 269.13-14.1L269.13-14.1Q270.18-17.25 270.18-17.95L270.18-17.95Q270.18-18.25 270.1-18.57 270.03-18.9 269.93-18.9L269.93-18.9Q268.78-18.9 266.15-17.8 263.53-16.7 262.63-15.6L262.63-15.6Q261.68-12.55 259.48-2.9L259.48-2.9 259.18-1.5Q258.93-0.2 258.7 0.3 258.48 0.8 257.83 1.05 257.18 1.3 255.73 1.3L255.73 1.3Q252.28 1.3 252.28-0.1L252.28-0.1Q252.68-1.2 254.48-8.55L254.48-8.55Q255.58-13.1 256.98-18.6L256.98-18.6Q256.68-18.45 255.88-18.15L255.88-18.15Q253.48-17.2 251.7-16.2 249.93-15.2 248.83-13.85L248.83-13.85 247.53-8.55Q247.23-7.35 246.98-6.33 246.73-5.3 246.53-4.6L246.53-4.6Q246.28-3.75 246.18-2.3L246.18-2.3Q246.08-1.3 245.9-0.85 245.73-0.4 245.05-0.13 244.38 0.15 242.93 0.15L242.93 0.15Q241.28 0.15 240.43-0.2 239.58-0.55 239.58-1.7L239.58-1.7Q239.58-2.25 240.85-7.55 242.13-12.85 244.33-21.35L244.33-21.35 243.18-22.85ZM297.87-2.6Q297.97-1.3 298.22-0.25L298.22-0.25Q298.12 0.05 297.35 0.35 296.57 0.65 296.02 0.65L296.02 0.65Q294.22 0.65 293.45 0.13 292.67-0.4 292.67-1.45L292.67-1.45Q292.67-2.45 292.87-3.45L292.87-3.45Q291.77-1.95 289.65-0.98 287.52 0 286.22 0L286.22 0Q282.87 0 280.65-1.95 278.42-3.9 278.42-8.2L278.42-8.2Q278.42-12.25 280.35-15.83 282.27-19.4 285.67-21.58 289.07-23.75 293.22-23.75L293.22-23.75Q294.02-23.75 295.32-23.33 296.62-22.9 297.95-21.88 299.27-20.85 300.17-19.25L300.17-19.25Q300.57-19.25 301.12-18.85 301.67-18.45 301.67-18.05L301.67-18.05Q301.67-17.6 301.52-17.15L301.52-17.15 297.87-2.6ZM295.62-16.6Q295.32-17.7 294.45-18.45 293.57-19.2 292.87-19.2L292.87-19.2Q290.57-19.2 288.55-17.57 286.52-15.95 285.27-13.55 284.02-11.15 284.02-9L284.02-9Q284.02-6.9 284.52-5.55 285.02-4.2 286.47-4.2L286.47-4.2Q287.72-4.2 289.35-4.95 290.97-5.7 292.25-6.98 293.52-8.25 293.92-9.65L293.92-9.65 295.62-16.6ZM307.02-22.85Q306.87-23 306.87-23.2L306.87-23.2Q306.87-23.7 307.97-24.03 309.07-24.35 311.02-24.35L311.02-24.35Q312.82-24.35 313.67-23.43 314.52-22.5 314.67-21.2L314.67-21.2 313.77-17.95Q314.82-19.4 316.72-20.73 318.62-22.05 320.57-22.85 322.52-23.65 323.77-23.65L323.77-23.65Q326.42-23.65 327.62-22.68 328.82-21.7 328.82-19.6L328.82-19.6Q325.87-11.9 324.92-3L324.92-3 325.62-0.55Q325.02 0.6 323.95 1.28 322.87 1.95 320.82 1.95L320.82 1.95Q319.62 1.95 319.07 1.15 318.52 0.35 318.52-0.85L318.52-0.85Q318.52-4.2 319.5-8.22 320.47-12.25 321.77-16.45L321.77-16.45Q322.27-18.05 322.27-18.1L322.27-18.1Q322.27-18.8 321.47-18.8L321.47-18.8Q320.37-18.8 318.15-17.25 315.92-15.7 313.57-12.03 311.22-8.35 309.77-2.4L309.77-2.4Q309.67-2.1 309.52-1.3 309.37-0.5 308.72-0.18 308.07 0.15 306.62 0.15L306.62 0.15Q304.97 0.15 304.2-0.2 303.42-0.55 303.42-1.7L303.42-1.7Q303.57-2.4 303.87-3.4L303.87-3.4Q306.77-15.05 308.32-21.35L308.32-21.35 307.02-22.85ZM349.92-2.6Q350.02-1.3 350.27-0.25L350.27-0.25Q350.17 0.05 349.39 0.35 348.62 0.65 348.07 0.65L348.07 0.65Q346.27 0.65 345.49 0.13 344.72-0.4 344.72-1.45L344.72-1.45Q344.72-2.45 344.92-3.45L344.92-3.45Q343.82-1.95 341.69-0.98 339.57 0 338.27 0L338.27 0Q334.92 0 332.69-1.95 330.47-3.9 330.47-8.2L330.47-8.2Q330.47-12.25 332.39-15.83 334.32-19.4 337.72-21.58 341.12-23.75 345.27-23.75L345.27-23.75Q346.07-23.75 347.37-23.33 348.67-22.9 349.99-21.88 351.32-20.85 352.22-19.25L352.22-19.25Q352.62-19.25 353.17-18.85 353.72-18.45 353.72-18.05L353.72-18.05Q353.72-17.6 353.57-17.15L353.57-17.15 349.92-2.6ZM347.67-16.6Q347.37-17.7 346.49-18.45 345.62-19.2 344.92-19.2L344.92-19.2Q342.62-19.2 340.59-17.57 338.57-15.95 337.32-13.55 336.07-11.15 336.07-9L336.07-9Q336.07-6.9 336.57-5.55 337.07-4.2 338.52-4.2L338.52-4.2Q339.77-4.2 341.39-4.95 343.02-5.7 344.29-6.98 345.57-8.25 345.97-9.65L345.97-9.65 347.67-16.6ZM361.37 11.35Q359.07 11.35 357.04 10.35 355.02 9.35 353.64 7.78 352.27 6.2 351.67 4.6L351.67 4.6Q351.72 3.7 352.54 2.83 353.37 1.95 355.42 1.95L355.42 1.95Q356.07 1.95 356.54 2.45 357.02 2.95 357.62 4.05L357.62 4.05Q358.42 5.55 359.29 6.38 360.17 7.2 361.72 7.2L361.72 7.2Q363.47 7.2 365.09 5.83 366.72 4.45 367.89 2.1 369.07-0.25 369.52-3.1L369.52-3.1Q368.42-1.6 366.99-0.8 365.57 0 364.32 0L364.32 0Q360.32 0 357.99-1.78 355.67-3.55 355.67-8.1L355.67-8.1Q355.67-12.2 357.94-15.75 360.22-19.3 364.02-21.4 367.82-23.5 372.17-23.5L372.17-23.5Q375.02-23.5 376.39-22.35 377.77-21.2 378.07-19.45L378.07-19.45Q378.92-19.05 378.97-18.65L378.97-18.65Q378.97-18.5 378.77-17.6L378.77-17.6Q377.82-13.5 374.77-1.4L374.77-1.4 374.22 0.8Q372.97 5.65 369.44 8.5 365.92 11.35 361.37 11.35L361.37 11.35ZM372.67-18.35Q372.27-19.05 371.89-19.25 371.52-19.45 370.77-19.45L370.77-19.45Q368.42-19.45 366.22-17.93 364.02-16.4 362.67-13.98 361.32-11.55 361.32-9L361.32-9Q361.32-7.15 361.99-5.8 362.67-4.45 364.17-4.25L364.17-4.25Q366.17-4.6 367.94-6.05 369.72-7.5 370.37-9.8L370.37-9.8 372.67-18.35ZM390.26 1.05Q385.36 1.05 383.11-0.9 380.86-2.85 380.86-6.1L380.86-6.1Q380.86-10.85 383.24-14.9 385.61-18.95 389.59-21.33 393.56-23.7 398.16-23.7L398.16-23.7Q400.96-23.7 402.86-22.13 404.76-20.55 404.76-17.5L404.76-17.5Q404.76-15.75 403.64-14.63 402.51-13.5 400.41-12.63 398.31-11.75 393.61-10.15L393.61-10.15Q389.36-8.75 386.71-7.8L386.71-7.8Q386.51-7.05 386.51-6.25L386.51-6.25Q386.51-4.85 387.69-4.1 388.86-3.35 391.01-3.35L391.01-3.35Q392.36-3.35 394.11-3.9 395.86-4.45 396.31-5.3L396.31-5.3Q398.01-8.4 399.41-8.4L399.41-8.4Q401.46-8.4 402.19-7.63 402.91-6.85 402.96-5.9L402.96-5.9Q402.36-4.3 400.61-2.68 398.86-1.05 396.16 0 393.46 1.05 390.26 1.05L390.26 1.05ZM388.11-12.4Q393.06-14 396.26-15.38 399.46-16.75 399.46-18.1L399.46-18.1Q399.46-18.7 398.81-19.07 398.16-19.45 397.41-19.45L397.41-19.45Q395.91-19.45 393.99-18.3 392.06-17.15 390.41-15.5 388.76-13.85 388.11-12.4L388.11-12.4ZM412.66-1.9Q412.61-1.6 412.44-0.73 412.26 0.15 411.59 0.5 410.91 0.85 409.46 0.85L409.46 0.85Q407.81 0.85 407.06 0.5 406.31 0.15 406.31-1L406.31-1 408.71-10.55Q410.71-18.8 411.36-21.05L411.36-21.05 410.11-22.55Q409.96-22.7 409.96-22.9L409.96-22.9Q409.96-23.4 411.06-23.73 412.16-24.05 414.11-24.05L414.11-24.05Q415.86-24.05 416.46-23.08 417.06-22.1 417.21-20.55L417.21-20.55 416.86-19.25Q418.46-21.2 420.59-22.48 422.71-23.75 424.36-23.75L424.36-23.75Q426.51-23.75 427.71-23 428.91-22.25 428.91-21.05L428.91-21.05Q428.91-20 428.19-18.88 427.46-17.75 426.36-16.98 425.26-16.2 424.21-16.1L424.21-16.1Q423.21-16.1 422.86-16.35 422.51-16.6 422.51-17.1L422.51-17.1 422.81-18.75Q418.81-17.65 415.56-13.45L415.56-13.45 412.66-1.9ZM436.21-10.3Q435.91-8.95 435.23-8.45 434.56-7.95 432.91-7.95L432.91-7.95Q430.11-7.95 430.11-9.9L430.11-9.9Q430.11-11.15 430.73-13.88 431.36-16.6 432.56-21.15L432.56-21.15Q434.16-27.25 435.06-31.35L435.06-31.35Q435.56-33.8 438.61-33.8L438.61-33.8Q440.11-33.8 440.91-33.25 441.71-32.7 441.51-31.75L441.51-31.75 436.21-10.3ZM430.96 0.65Q429.66 0.65 428.71-0.33 427.76-1.3 427.76-2.6L427.76-2.6Q427.76-3.9 428.96-5.03 430.16-6.15 431.91-6.15L431.91-6.15Q433.46-6.15 434.51-5.43 435.56-4.7 435.56-3.2L435.56-3.2Q435.56-1.65 434.13-0.5 432.71 0.65 430.96 0.65L430.96 0.65Z" opacity="1" transform="matrix(1,0,0,1,0,0)" fill="#b19dd0" class="slogan-text-1" data-fill-palette-color="secondary" id="text-1"></path></svg></g></svg></g></svg></g></svg></g><g><svg viewBox="0 0 85.48725923970936 85.48725923970936" height="85.48725923970936" width="85.48725923970936"><g><svg></svg></g><g id="icon-0"><svg viewBox="0 0 85.48725923970936 85.48725923970936" height="85.48725923970936" width="85.48725923970936"><g><rect width="77.73008201240239" height="77.73008201240239" x="3.878588613653484" y="3.878588613653484" fill="#8b3c7f" data-fill-palette-color="accent"></rect><rect width="77.73008201240239" height="77.73008201240239" x="7.757177227306964" y="4.440892098500626e-15" fill="#8b3c7f" opacity="0.5" data-fill-palette-color="accent"></rect></g><g transform="matrix(1,0,0,1,13.206239171122483,11.081681753295658)"><svg viewBox="0 0 59.07478089746439 63.32389573311804" height="63.32389573311804" width="59.07478089746439"><g><svg xmlns="http://www.w3.org/2000/svg" xmlns:xlink="http://www.w3.org/1999/xlink" version="1.1" x="0" y="0" viewBox="5.799999237060547 1.676223635673523 116.35464477539062 124.72377014160156" style="enable-background:new 0 0 128 128;" xml:space="preserve" height="63.32389573311804" width="59.07478089746439" class="icon-s-0" data-fill-palette-color="background" id="s-0"><g fill="#ffffff" data-fill-palette-color="background"><path d="M48.4 1.7C42.4 1.3 37.5 6 37.5 11.8c0 0 0 0 0 0.1 0 2.7-2 5-4.6 5.3C25.2 18.1 20 19.7 20 21.5c0 0.2 0.1 5.5 0.2 5.6h54.8c0.1-0.2 0.2-5.5 0.2-5.6 0-1.8-5.1-3.4-12.9-4.4-2.7-0.3-4.7-2.6-4.6-5.3 0-0.2 0-0.4 0-0.6C57.5 6.2 53.4 2.1 48.4 1.7z" fill="#ffffff" data-fill-palette-color="background"></path><path d="M121.9 54.1c0.4-0.4 0.3-1.1-0.1-1.4l-13.2-10.8c-0.4-0.4-1.1-0.3-1.4 0.1l-3.1 3.8 14.7 12.1L121.9 54.1z" fill="#ffffff" data-fill-palette-color="background"></path><rect x="65.5" y="66.6" transform="matrix(0.6336 -0.7737 0.7737 0.6336 -25.3777 98.7355)" width="52.1" height="19" fill="#ffffff" data-fill-palette-color="background"></rect><polygon points="80.4,103.7 66.7,92.5 64.3,109.5  " fill="#ffffff" data-fill-palette-color="background"></polygon><path d="M28.6 57.7L25.2 61l-0.7-0.7c-0.8-0.7-2-0.7-2.7 0-0.7 0.8-0.7 2 0 2.7l3.4 3.3 6.1-5.9c0.8-0.7 0.8-2 0-2.7C30.6 57 29.4 57 28.6 57.7z" fill="#ffffff" data-fill-palette-color="background"></path><path d="M30.5 83.3c-0.8-0.8-2-0.8-2.7 0l-1.2 1.2-1.2-1.2c-0.8-0.8-2-0.8-2.7 0-0.8 0.8-0.8 2 0 2.7l1.2 1.2-1.2 1.2c-0.8 0.8-0.8 2 0 2.7 0.4 0.4 0.9 0.6 1.4 0.6s1-0.2 1.4-0.6l1.2-1.2 1.2 1.2c0.4 0.4 0.9 0.6 1.4 0.6s1-0.2 1.4-0.6c0.8-0.8 0.8-2 0-2.7l-1.2-1.2 1.2-1.2C31.3 85.3 31.3 84.1 30.5 83.3z" fill="#ffffff" data-fill-palette-color="background"></path><path d="M89.1 98.3l-4.5 5.5 1 0.8-2.3 0.8-0.4 0.5-0.3-0.3-21.4 7.7 3.3-22.5-0.3-0.3 0.4-0.5 0.4-2.4 1 0.8 23.3-28.4V24.2h-8.8-2.5c-0.1 3.6-0.3 3.9-0.6 4.4l-0.8 1.2H18.8l-0.8-1.1c-0.3-0.5-0.5-0.8-0.6-4.4h-2.6-9v102.1h83.2V98.3zM40.7 58.5h39.3c1.1 0 1.9 0.9 1.9 1.9s-0.9 1.9-1.9 1.9H40.7c-1.1 0-1.9-0.9-1.9-1.9S39.7 58.5 40.7 58.5zM26.6 95.8c-5 0-9.1-4.1-9.1-9.1 0-5 4.1-9.1 9.1-9.1 5 0 9.1 4.1 9.1 9.1C35.6 91.8 31.6 95.8 26.6 95.8zM26.6 69.7c-5 0-9.1-4.1-9.1-9.1 0-5 4.1-9.1 9.1-9.1 5 0 9.1 4.1 9.1 9.1C35.6 65.6 31.6 69.7 26.6 69.7zM40.7 89c-1.1 0-1.9-0.9-1.9-1.9s0.9-1.9 1.9-1.9h19.7c1.1 0 1.9 0.9 1.9 1.9S61.5 89 60.4 89H40.7z" fill="#ffffff" data-fill-palette-color="background"></path></g></svg></g></svg></g></svg></g></svg></g></svg></g><defs></defs></svg><rect width="395.52" height="68.93152370261211" fill="none" stroke="none" visibility="hidden"></rect></g></svg></g></svg>